<?xml version="1.0" standalone="no"?><!-- Generator: Gravit.io --><svg xmlns="http://www.w3.org/2000/svg" xmlns:xlink="http://www.w3.org/1999/xlink" style="isolation:isolate" viewBox="0 0 64 64" width="64" height="64"><defs><clipPath id="_clipPath_yUN0a4VfpC1esKYERv1bDe9p4xisEZNk"><rect width="64" height="64"/></clipPath></defs><g clip-path="url(#_clipPath_yUN0a4VfpC1esKYERv1bDe9p4xisEZNk)"><path d=" M 60.677 49.918 L 61.107 49.918 L 61.107 48.96 L 61.446 48.96 C 61.672 48.96 61.833 48.982 61.924 49.04 C 62.075 49.13 62.152 49.316 62.152 49.597 L 62.152 49.793 L 62.162 49.867 C 62.167 49.882 62.167 49.888 62.168 49.896 C 62.171 49.909 62.172 49.913 62.179 49.918 L 62.577 49.918 L 62.562 49.891 C 62.551 49.871 62.544 49.831 62.543 49.766 C 62.538 49.698 62.538 49.639 62.538 49.584 L 62.538 49.403 C 62.538 49.28 62.492 49.156 62.403 49.024 C 62.313 48.895 62.172 48.818 61.98 48.785 C 62.132 48.76 62.252 48.719 62.333 48.67 C 62.496 48.567 62.572 48.401 62.572 48.187 C 62.572 47.882 62.45 47.672 62.194 47.568 C 62.053 47.512 61.833 47.481 61.528 47.481 L 60.677 47.481 L 60.677 49.918 Z  M 61.901 48.605 C 61.813 48.642 61.676 48.66 61.492 48.66 L 61.107 48.66 L 61.107 47.772 L 61.474 47.772 C 61.711 47.772 61.885 47.807 61.991 47.866 C 62.1 47.929 62.152 48.046 62.152 48.222 C 62.152 48.412 62.07 48.534 61.901 48.605 Z  M 63.149 47.14 C 62.711 46.708 62.188 46.494 61.569 46.494 C 60.963 46.494 60.437 46.708 60.008 47.14 C 59.572 47.572 59.359 48.097 59.359 48.712 C 59.359 49.327 59.569 49.853 60 50.284 C 60.431 50.721 60.958 50.938 61.569 50.938 C 62.188 50.938 62.711 50.721 63.149 50.284 C 63.578 49.85 63.8 49.323 63.8 48.712 C 63.8 48.094 63.578 47.572 63.149 47.14 Z  M 62.924 47.361 C 63.299 47.726 63.48 48.182 63.48 48.712 C 63.48 49.238 63.299 49.696 62.924 50.071 C 62.553 50.443 62.102 50.634 61.569 50.634 C 61.041 50.634 60.59 50.443 60.216 50.071 C 59.851 49.696 59.663 49.238 59.663 48.712 C 59.663 48.182 59.851 47.726 60.216 47.361 C 60.596 46.98 61.045 46.793 61.569 46.793 C 62.1 46.793 62.551 46.98 62.924 47.361 Z " fill="rgb(230,51,60)"/><path d=" M 56.572 39.042 C 56.73 35.901 56.149 32.515 53.415 29.452 C 50.606 26.423 45.864 23.854 36.112 23.253 C 36.619 21.674 37.063 20.225 37.529 18.746 C 43.361 18.951 48.549 19.371 52.966 19.944 C 53.316 18.362 53.504 16.816 53.866 15.324 C 53.415 14.667 52.939 14.03 52.439 13.413 C 50.338 13.17 48.244 12.645 45.991 12.358 C 42.944 11.965 39.752 11.683 36.307 11.525 C 34.136 17.99 31.423 26.123 28.64 34.529 C 43.148 35.785 48.726 39.694 48.413 45.209 C 48.124 48.187 45.4 50.896 41.819 51.216 C 37.56 51.503 35.609 49.782 34.329 47.893 C 33.202 46.197 32.077 44.5 30.876 42.649 C 30.55 42.105 30.119 42.457 29.731 42.837 C 28.853 43.691 28.017 44.496 27.149 45.327 C 26.59 45.814 26.714 46.231 26.911 46.637 C 27.722 48.55 28.478 50.303 29.24 52.043 C 30.512 52.822 36.481 53.884 40.945 53.55 C 43.972 53.295 47.755 52.126 50.881 49.771 C 53.972 47.378 56.222 44.148 56.572 39.042 Z " fill="rgb(254,254,254)"/><path d=" M 5.833 49.411 C 6.392 50.168 6.985 50.898 7.612 51.598 C 12.631 52.5 18.888 53.124 25.406 53.314 C 25.384 52.638 25.365 51.981 25.349 51.284 C 21.346 51.058 19.507 50.449 19.187 49.656 C 18.919 49.027 18.874 48.087 18.816 47.159 C 18.516 41.011 18.417 34.362 18.521 27.689 C 20.763 27.65 22.989 27.631 25.327 27.604 C 26.46 27.088 27.526 26.576 28.658 26.071 C 28.658 25.263 28.664 24.54 28.664 23.751 C 25.195 23.767 21.908 23.822 18.611 23.917 C 18.704 21.112 18.815 18.522 18.979 15.995 C 19.098 14.335 20.247 13.122 21.432 13.027 C 23.333 12.952 25.039 13.707 26.691 14.442 C 27.602 14.883 28.5 15.322 29.432 15.8 C 29.878 15.921 30.408 16.023 30.726 15.635 C 31.28 14.98 31.806 14.371 32.349 13.734 C 32.644 13.3 32.516 13.05 32.396 12.89 C 31.211 11.954 30.094 11.112 28.966 10.266 C 28.269 9.792 27.169 9.691 26.085 9.691 C 25.652 9.691 25.218 9.707 24.815 9.72 C 23.701 9.779 22.281 9.956 19.959 10.521 C 14.726 11.93 8.445 15.579 7.782 21.544 C 7.697 22.518 7.626 23.482 7.562 24.477 C 6.085 24.603 4.74 24.71 3.47 24.831 C 3.377 25.972 3.315 27.067 3.263 28.224 C 4.548 28.148 5.889 28.082 7.383 28.016 C 7.162 34.27 7.371 40.513 7.958 46.291 C 8.058 47.169 8.153 48.04 8.038 48.603 C 7.945 49.141 7.081 49.42 5.833 49.411 Z " fill="rgb(254,254,254)"/><path d=" M 53.867 15.324 C 53.505 16.816 53.316 18.362 52.967 19.944 C 48.549 19.371 43.36 18.951 37.529 18.746 C 37.062 20.225 36.619 21.674 36.112 23.253 C 45.864 23.854 50.606 26.423 53.415 29.452 C 56.149 32.515 56.73 35.901 56.572 39.042 C 56.223 44.148 53.971 47.378 50.881 49.771 C 47.754 52.126 43.971 53.295 40.946 53.55 C 36.481 53.884 30.511 52.822 29.241 52.043 C 28.478 50.303 27.723 48.55 26.912 46.637 C 26.715 46.231 26.59 45.812 27.149 45.327 C 28.017 44.496 28.852 43.691 29.731 42.837 C 30.12 42.457 30.551 42.105 30.877 42.649 C 32.078 44.5 33.202 46.197 34.329 47.893 C 35.609 49.782 37.56 51.503 41.818 51.216 C 45.401 50.896 48.125 48.187 48.412 45.209 C 48.726 39.694 43.147 35.785 28.639 34.529 C 31.423 26.123 34.137 17.99 36.307 11.525 C 39.752 11.683 42.944 11.965 45.991 12.358 C 48.244 12.645 50.338 13.17 52.439 13.413 C 47.039 6.757 38.797 2.5 29.558 2.5 C 13.288 2.5 0.1 15.687 0.1 31.955 C 0.1 38.49 2.232 44.525 5.834 49.41 C 7.08 49.419 7.945 49.14 8.039 48.602 C 8.152 48.041 8.057 47.17 7.958 46.291 C 7.372 40.512 7.161 34.27 7.383 28.016 C 5.89 28.081 4.549 28.149 3.263 28.223 C 3.315 27.067 3.377 25.971 3.469 24.83 C 4.74 24.709 6.084 24.602 7.562 24.478 C 7.626 23.482 7.697 22.517 7.783 21.543 C 8.446 15.58 14.727 11.93 19.959 10.522 C 22.28 9.957 23.701 9.778 24.816 9.719 C 25.218 9.706 25.652 9.691 26.085 9.691 C 27.169 9.691 28.27 9.792 28.967 10.265 C 30.095 11.111 31.211 11.953 32.397 12.889 C 32.517 13.05 32.643 13.299 32.35 13.735 C 31.805 14.372 31.279 14.981 30.726 15.636 C 30.407 16.022 29.878 15.92 29.433 15.8 C 28.5 15.323 27.602 14.884 26.692 14.441 C 25.039 13.708 23.333 12.953 21.432 13.026 C 20.246 13.121 19.099 14.336 18.98 15.995 C 18.814 18.521 18.705 21.111 18.612 23.917 C 21.908 23.823 25.196 23.768 28.663 23.751 C 28.663 24.541 28.658 25.264 28.658 26.071 C 27.527 26.577 26.461 27.088 25.327 27.605 C 22.988 27.631 20.762 27.649 18.521 27.688 C 18.417 34.362 18.515 41.012 18.816 47.16 C 18.873 48.088 18.92 49.026 19.188 49.657 C 19.507 50.448 21.347 51.058 25.35 51.284 C 25.364 51.981 25.383 52.637 25.406 53.315 C 18.889 53.123 12.63 52.5 7.612 51.597 C 13.006 57.618 20.838 61.41 29.558 61.41 C 45.828 61.41 59.01 48.222 59.01 31.955 C 59.01 25.783 57.11 20.056 53.867 15.324 Z " fill="rgb(230,51,60)"/><line x1="7.612" y1="51.597" x2="7.612" y2="51.597"/></g></svg>