<?xml version="1.0" standalone="no"?><!-- Generator: Gravit.io --><svg xmlns="http://www.w3.org/2000/svg" xmlns:xlink="http://www.w3.org/1999/xlink" style="isolation:isolate" viewBox="0 0 256 256" width="256" height="256"><defs><clipPath id="_clipPath_AuTZIjbR3RIVwVCI1ytjm23lMdXzg8mD"><rect width="256" height="256"/></clipPath></defs><g clip-path="url(#_clipPath_AuTZIjbR3RIVwVCI1ytjm23lMdXzg8mD)"><path d=" M 241.187 225.45 L 243.039 225.45 L 243.039 221.319 L 244.502 221.319 C 245.476 221.319 246.168 221.414 246.562 221.662 C 247.215 222.05 247.547 222.855 247.547 224.065 L 247.547 224.91 L 247.587 225.231 C 247.609 225.293 247.609 225.321 247.615 225.354 C 247.626 225.411 247.632 225.428 247.66 225.45 L 249.377 225.45 L 249.315 225.332 C 249.264 225.248 249.236 225.073 249.23 224.792 C 249.208 224.499 249.208 224.246 249.208 224.009 L 249.208 223.227 C 249.208 222.698 249.011 222.163 248.628 221.594 C 248.24 221.037 247.632 220.705 246.804 220.564 C 247.457 220.457 247.975 220.277 248.324 220.069 C 249.028 219.624 249.354 218.909 249.354 217.986 C 249.354 216.669 248.831 215.763 247.728 215.318 C 247.12 215.076 246.168 214.941 244.857 214.941 L 241.187 214.941 L 241.187 225.45 Z  M 246.461 219.788 C 246.084 219.945 245.493 220.024 244.699 220.024 L 243.039 220.024 L 243.039 216.196 L 244.62 216.196 C 245.645 216.196 246.394 216.348 246.849 216.602 C 247.322 216.872 247.547 217.378 247.547 218.138 C 247.547 218.955 247.193 219.484 246.461 219.788 Z  M 251.842 213.472 C 249.957 211.609 247.699 210.686 245.031 210.686 C 242.42 210.686 240.151 211.609 238.299 213.472 C 236.419 215.335 235.502 217.598 235.502 220.249 C 235.502 222.9 236.408 225.169 238.266 227.026 C 240.123 228.912 242.397 229.846 245.031 229.846 C 247.699 229.846 249.957 228.912 251.842 227.026 C 253.694 225.157 254.651 222.883 254.651 220.249 C 254.651 217.587 253.694 215.335 251.842 213.472 Z  M 250.874 214.423 C 252.49 215.999 253.272 217.964 253.272 220.249 C 253.272 222.518 252.49 224.493 250.874 226.109 C 249.275 227.713 247.328 228.535 245.031 228.535 C 242.757 228.535 240.81 227.713 239.2 226.109 C 237.624 224.493 236.813 222.518 236.813 220.249 C 236.813 217.964 237.624 215.999 239.2 214.423 C 240.838 212.78 242.774 211.975 245.031 211.975 C 247.322 211.975 249.264 212.78 250.874 214.423 Z " fill="rgb(230,51,60)"/><path d=" M 244.487 158.556 C 245.168 145.013 242.663 130.412 230.877 117.207 C 218.763 104.148 198.32 93.07 156.272 90.481 C 158.456 83.67 160.37 77.422 162.38 71.045 C 187.524 71.929 209.892 73.741 228.94 76.212 C 230.449 69.39 231.259 62.726 232.819 56.292 C 230.877 53.46 228.822 50.714 226.666 48.051 C 217.61 47.004 208.581 44.741 198.866 43.503 C 185.728 41.809 171.966 40.593 157.111 39.912 C 147.75 67.786 136.054 102.853 124.053 139.097 C 186.606 144.512 210.658 161.365 209.307 185.146 C 208.063 197.986 196.316 209.666 180.876 211.045 C 162.515 212.283 154.1 204.864 148.583 196.719 C 143.726 189.407 138.874 182.09 133.695 174.108 C 132.288 171.761 130.431 173.281 128.759 174.919 C 124.971 178.6 121.368 182.073 117.625 185.653 C 115.216 187.753 115.751 189.554 116.601 191.304 C 120.096 199.551 123.355 207.11 126.642 214.613 C 132.125 217.968 157.86 222.55 177.11 221.109 C 190.158 220.011 206.47 214.968 219.951 204.814 C 233.274 194.496 242.979 180.57 244.487 158.556 Z " fill="rgb(254,254,254)"/><path d=" M 25.719 203.262 C 28.128 206.527 30.684 209.673 33.391 212.69 C 55.028 216.58 82.007 219.271 110.112 220.092 C 110.016 217.177 109.932 214.345 109.864 211.34 C 92.606 210.366 84.675 207.737 83.296 204.32 C 82.142 201.607 81.945 197.555 81.697 193.553 C 80.403 167.046 79.975 138.379 80.425 109.604 C 90.09 109.436 99.687 109.357 109.768 109.239 C 114.654 107.015 119.253 104.809 124.133 102.63 C 124.133 99.146 124.156 96.028 124.156 92.628 C 109.2 92.696 95.026 92.932 80.814 93.343 C 81.213 81.247 81.692 70.079 82.401 59.187 C 82.913 52.027 87.867 46.798 92.978 46.387 C 101.173 46.066 108.53 49.32 115.65 52.489 C 119.579 54.392 123.452 56.283 127.471 58.343 C 129.39 58.866 131.676 59.305 133.049 57.634 C 135.436 54.808 137.704 52.185 140.046 49.438 C 141.318 47.564 140.766 46.489 140.248 45.796 C 135.137 41.76 130.325 38.13 125.461 34.482 C 122.456 32.439 117.711 32.006 113.039 32.006 C 111.17 32.006 109.301 32.073 107.562 32.13 C 102.76 32.383 96.636 33.148 86.623 35.586 C 64.062 41.659 36.982 57.392 34.123 83.11 C 33.757 87.309 33.447 91.468 33.171 95.758 C 26.805 96.298 21.008 96.76 15.531 97.283 C 15.131 102.203 14.861 106.925 14.636 111.912 C 20.18 111.586 25.961 111.299 32.4 111.017 C 31.449 137.979 32.35 164.896 34.883 189.809 C 35.31 193.598 35.721 197.352 35.226 199.778 C 34.826 202.097 31.1 203.302 25.719 203.262 Z " fill="rgb(254,254,254)"/><path d=" M 232.822 56.292 C 231.263 62.726 230.447 69.39 228.944 76.212 C 209.896 73.741 187.522 71.929 162.378 71.045 C 160.368 77.422 158.455 83.67 156.271 90.481 C 198.318 93.07 218.762 104.148 230.875 117.207 C 242.662 130.412 245.166 145.013 244.485 158.556 C 242.982 180.57 233.273 194.496 219.949 204.814 C 206.468 214.968 190.156 220.011 177.114 221.109 C 157.864 222.55 132.123 217.968 126.646 214.613 C 123.353 207.11 120.1 199.551 116.604 191.304 C 115.755 189.554 115.214 187.747 117.623 185.653 C 121.366 182.073 124.969 178.6 128.757 174.919 C 130.434 173.281 132.292 171.761 133.699 174.108 C 138.878 182.09 143.724 189.407 148.582 196.719 C 154.104 204.864 162.513 212.283 180.874 211.045 C 196.32 209.666 208.067 197.986 209.305 185.146 C 210.656 161.365 186.604 144.512 124.051 139.097 C 136.052 102.853 147.754 67.786 157.109 39.912 C 171.964 40.593 185.726 41.809 198.864 43.503 C 208.579 44.741 217.608 47.004 226.665 48.051 C 203.384 19.356 167.849 1 128.014 1 C 57.862 1 1 57.857 1 127.997 C 1 156.175 10.192 182.197 25.722 203.26 C 31.097 203.299 34.824 202.095 35.229 199.776 C 35.718 197.355 35.308 193.601 34.88 189.813 C 32.352 164.894 31.446 137.983 32.403 111.015 C 25.964 111.297 20.183 111.589 14.639 111.91 C 14.864 106.923 15.128 102.2 15.528 97.281 C 21.005 96.757 26.802 96.296 33.174 95.761 C 33.45 91.466 33.754 87.307 34.126 83.107 C 36.985 57.395 64.065 41.657 86.625 35.589 C 96.633 33.152 102.758 32.381 107.565 32.127 C 109.298 32.071 111.173 32.003 113.036 32.003 C 117.713 32.003 122.458 32.443 125.464 34.48 C 130.328 38.128 135.14 41.758 140.251 45.794 C 140.769 46.486 141.315 47.562 140.048 49.442 C 137.701 52.188 135.433 54.811 133.046 57.637 C 131.673 59.303 129.393 58.864 127.474 58.346 C 123.449 56.286 119.576 54.395 115.653 52.487 C 108.527 49.323 101.17 46.07 92.975 46.385 C 87.864 46.796 82.916 52.031 82.404 59.185 C 81.689 70.077 81.216 81.244 80.817 93.341 C 95.029 92.935 109.203 92.699 124.153 92.626 C 124.153 96.031 124.13 99.15 124.13 102.628 C 119.256 104.812 114.657 107.013 109.771 109.242 C 99.684 109.355 90.087 109.433 80.422 109.602 C 79.978 138.377 80.4 167.05 81.695 193.556 C 81.942 197.558 82.145 201.605 83.299 204.324 C 84.678 207.735 92.609 210.364 109.867 211.337 C 109.929 214.343 110.013 217.174 110.109 220.096 C 82.01 219.268 55.025 216.583 33.388 212.688 C 56.646 238.648 90.414 255 128.014 255 C 198.16 255 255 198.138 255 127.997 C 255 101.39 246.804 76.696 232.822 56.292 Z " fill="rgb(230,51,60)"/><line x1="33.39" y1="212.689" x2="33.39" y2="212.689"/></g></svg>