<?xml version="1.0" standalone="no"?><!-- Generator: Gravit.io --><svg xmlns="http://www.w3.org/2000/svg" xmlns:xlink="http://www.w3.org/1999/xlink" style="isolation:isolate" viewBox="0 0 256 256" width="256" height="256"><defs><clipPath id="_clipPath_8K4Fev3dsd9UuejChInXW2aWbRIGCDF8"><rect width="256" height="256"/></clipPath></defs><g clip-path="url(#_clipPath_8K4Fev3dsd9UuejChInXW2aWbRIGCDF8)"><path d=" M 239.243 238.06 L 241.11 238.06 L 241.11 233.896 L 242.585 233.896 C 243.566 233.896 244.264 233.992 244.661 234.242 C 245.319 234.633 245.654 235.445 245.654 236.664 L 245.654 237.515 L 245.694 237.839 C 245.716 237.901 245.716 237.93 245.722 237.964 C 245.734 238.02 245.739 238.037 245.768 238.06 L 247.498 238.06 L 247.435 237.941 C 247.384 237.856 247.356 237.68 247.35 237.396 C 247.328 237.101 247.328 236.846 247.328 236.608 L 247.328 235.819 C 247.328 235.286 247.129 234.747 246.743 234.174 C 246.352 233.612 245.739 233.278 244.905 233.136 C 245.563 233.028 246.085 232.846 246.437 232.636 C 247.146 232.188 247.475 231.468 247.475 230.537 C 247.475 229.21 246.948 228.297 245.836 227.848 C 245.223 227.604 244.264 227.468 242.942 227.468 L 239.243 227.468 L 239.243 238.06 Z  M 244.559 232.353 C 244.179 232.512 243.583 232.591 242.783 232.591 L 241.11 232.591 L 241.11 228.733 L 242.704 228.733 C 243.737 228.733 244.491 228.887 244.951 229.142 C 245.427 229.414 245.654 229.925 245.654 230.691 C 245.654 231.513 245.297 232.046 244.559 232.353 Z  M 249.983 225.988 C 248.082 224.11 245.807 223.179 243.118 223.179 C 240.486 223.179 238.2 224.11 236.333 225.988 C 234.438 227.865 233.514 230.146 233.514 232.818 C 233.514 235.49 234.427 237.776 236.299 239.648 C 238.171 241.549 240.463 242.491 243.118 242.491 C 245.807 242.491 248.082 241.549 249.983 239.648 C 251.849 237.765 252.814 235.473 252.814 232.818 C 252.814 230.135 251.849 227.865 249.983 225.988 Z  M 249.007 226.946 C 250.635 228.535 251.424 230.515 251.424 232.818 C 251.424 235.104 250.635 237.096 249.007 238.724 C 247.396 240.341 245.433 241.169 243.118 241.169 C 240.826 241.169 238.863 240.341 237.241 238.724 C 235.652 237.096 234.835 235.104 234.835 232.818 C 234.835 230.515 235.652 228.535 237.241 226.946 C 238.892 225.29 240.843 224.479 243.118 224.479 C 245.427 224.479 247.384 225.29 249.007 226.946 Z " fill="rgb(230,51,60)"/><path d=" M 245.404 158.797 C 246.091 145.147 243.566 130.431 231.687 117.122 C 219.478 103.96 198.873 92.795 156.495 90.186 C 158.696 83.321 160.625 77.024 162.65 70.596 C 187.992 71.487 210.537 73.314 229.735 75.804 C 231.256 68.929 232.072 62.212 233.644 55.727 C 231.687 52.874 229.616 50.105 227.443 47.422 C 218.315 46.366 209.215 44.086 199.424 42.838 C 186.182 41.13 172.312 39.905 157.34 39.218 C 147.906 67.312 136.117 102.655 124.022 139.185 C 187.067 144.642 211.309 161.627 209.947 185.596 C 208.693 198.537 196.854 210.309 181.292 211.699 C 162.786 212.947 154.305 205.469 148.746 197.26 C 143.85 189.891 138.959 182.516 133.74 174.471 C 132.322 172.106 130.45 173.637 128.765 175.288 C 124.947 178.999 121.316 182.499 117.543 186.107 C 115.115 188.223 115.654 190.039 116.511 191.803 C 120.034 200.114 123.319 207.733 126.632 215.295 C 132.157 218.676 158.095 223.294 177.497 221.842 C 190.647 220.736 207.088 215.653 220.675 205.418 C 234.103 195.02 243.884 180.984 245.404 158.797 Z " fill="rgb(254,254,254)"/><path d=" M 24.914 203.855 C 27.342 207.145 29.917 210.317 32.646 213.357 C 54.454 217.277 81.645 219.989 109.971 220.818 C 109.874 217.879 109.789 215.025 109.721 211.996 C 92.327 211.014 84.334 208.365 82.944 204.921 C 81.781 202.187 81.582 198.102 81.333 194.069 C 80.028 167.354 79.597 138.461 80.051 109.46 C 89.791 109.289 99.464 109.21 109.625 109.091 C 114.549 106.85 119.184 104.626 124.103 102.431 C 124.103 98.919 124.125 95.776 124.125 92.349 C 109.052 92.418 94.767 92.656 80.442 93.07 C 80.845 80.878 81.327 69.623 82.042 58.645 C 82.558 51.429 87.551 46.159 92.702 45.745 C 100.962 45.421 108.377 48.7 115.553 51.894 C 119.513 53.812 123.416 55.718 127.467 57.794 C 129.401 58.322 131.705 58.765 133.089 57.08 C 135.494 54.232 137.78 51.588 140.14 48.82 C 141.423 46.93 140.867 45.847 140.345 45.149 C 135.194 41.081 130.343 37.422 125.441 33.746 C 122.412 31.687 117.63 31.25 112.921 31.25 C 111.037 31.25 109.154 31.318 107.401 31.375 C 102.562 31.63 96.389 32.402 86.297 34.858 C 63.559 40.979 36.265 56.836 33.384 82.756 C 33.015 86.988 32.703 91.181 32.425 95.504 C 26.008 96.048 20.165 96.514 14.645 97.041 C 14.242 101.999 13.97 106.759 13.743 111.786 C 19.331 111.457 25.157 111.167 31.648 110.884 C 30.689 138.058 31.596 165.187 34.149 190.296 C 34.581 194.114 34.995 197.898 34.495 200.343 C 34.093 202.681 30.337 203.895 24.914 203.855 Z " fill="rgb(254,254,254)"/><path d=" M 233.648 55.727 C 232.076 62.212 231.254 68.929 229.739 75.804 C 210.541 73.314 187.991 71.487 162.649 70.596 C 160.623 77.024 158.694 83.321 156.493 90.186 C 198.872 92.795 219.476 103.96 231.685 117.122 C 243.564 130.431 246.089 145.147 245.403 158.797 C 243.888 180.984 234.102 195.02 220.673 205.418 C 207.086 215.653 190.646 220.736 177.501 221.842 C 158.099 223.294 132.156 218.676 126.636 215.295 C 123.317 207.733 120.038 200.114 116.515 191.803 C 115.658 190.039 115.113 188.217 117.542 186.107 C 121.314 182.499 124.945 178.999 128.763 175.288 C 130.454 173.637 132.326 172.106 133.744 174.471 C 138.963 182.516 143.848 189.891 148.744 197.26 C 154.309 205.469 162.785 212.947 181.291 211.699 C 196.858 210.309 208.697 198.537 209.946 185.596 C 211.307 161.627 187.066 144.642 124.02 139.185 C 136.115 102.655 147.91 67.312 157.339 39.218 C 172.31 39.905 186.181 41.13 199.422 42.838 C 209.214 44.086 218.313 46.366 227.441 47.422 C 203.977 18.5 168.163 0 128.014 0 C 57.31 0 0 57.304 0 127.997 C 0 156.397 9.264 182.624 24.916 203.853 C 30.334 203.892 34.09 202.678 34.498 200.341 C 34.992 197.901 34.578 194.117 34.147 190.299 C 31.599 165.185 30.686 138.061 31.65 110.881 C 25.16 111.165 19.334 111.46 13.746 111.783 C 13.973 106.757 14.24 101.997 14.642 97.039 C 20.162 96.511 26.006 96.046 32.428 95.507 C 32.706 91.179 33.012 86.986 33.386 82.754 C 36.268 56.839 63.562 40.977 86.3 34.861 C 96.386 32.405 102.559 31.628 107.404 31.372 C 109.151 31.316 111.04 31.248 112.918 31.248 C 117.632 31.248 122.415 31.69 125.444 33.744 C 130.346 37.42 135.196 41.079 140.348 45.147 C 140.869 45.845 141.42 46.928 140.143 48.823 C 137.778 51.591 135.491 54.235 133.086 57.083 C 131.702 58.762 129.404 58.32 127.47 57.798 C 123.413 55.721 119.51 53.815 115.556 51.892 C 108.374 48.704 100.959 45.425 92.699 45.742 C 87.548 46.157 82.561 51.433 82.045 58.643 C 81.324 69.621 80.848 80.876 80.445 93.068 C 94.77 92.659 109.055 92.421 124.122 92.347 C 124.122 95.779 124.1 98.922 124.1 102.428 C 119.187 104.63 114.552 106.848 109.628 109.094 C 99.461 109.208 89.789 109.287 80.048 109.457 C 79.6 138.458 80.025 167.357 81.33 194.072 C 81.58 198.106 81.784 202.185 82.947 204.925 C 84.337 208.363 92.33 211.012 109.724 211.994 C 109.786 215.023 109.872 217.877 109.968 220.821 C 81.648 219.987 54.451 217.281 32.643 213.355 C 56.085 239.52 90.118 256 128.014 256 C 198.713 256 256 198.69 256 127.997 C 256 101.18 247.74 76.292 233.648 55.727 Z " fill="rgb(230,51,60)"/><line x1="32.645" y1="213.356" x2="32.645" y2="213.356"/></g></svg>