<?xml version="1.0" standalone="no"?><!-- Generator: Gravit.io --><svg xmlns="http://www.w3.org/2000/svg" xmlns:xlink="http://www.w3.org/1999/xlink" style="isolation:isolate" viewBox="0 0 300 300" width="300" height="300"><defs><clipPath id="_clipPath_Xpn6pIP6JjNHZcGuEJpy4zjvG8BagVI7"><rect width="300" height="300"/></clipPath></defs><g clip-path="url(#_clipPath_Xpn6pIP6JjNHZcGuEJpy4zjvG8BagVI7)"><path d=" M 280.432 280.867 L 282.605 280.867 L 282.605 276.019 L 284.322 276.019 C 285.464 276.019 286.276 276.132 286.739 276.422 C 287.505 276.878 287.894 277.822 287.894 279.242 L 287.894 280.233 L 287.94 280.609 C 287.967 280.682 287.967 280.715 287.973 280.754 C 287.987 280.82 287.993 280.84 288.026 280.867 L 290.04 280.867 L 289.968 280.728 C 289.908 280.629 289.875 280.424 289.869 280.094 C 289.842 279.751 289.842 279.453 289.842 279.176 L 289.842 278.258 C 289.842 277.637 289.611 277.01 289.162 276.343 C 288.706 275.689 287.993 275.3 287.023 275.135 C 287.789 275.009 288.396 274.798 288.806 274.553 C 289.631 274.032 290.014 273.193 290.014 272.11 C 290.014 270.565 289.4 269.501 288.106 268.98 C 287.392 268.696 286.276 268.537 284.738 268.537 L 280.432 268.537 L 280.432 280.867 Z  M 286.62 274.223 C 286.177 274.408 285.484 274.501 284.553 274.501 L 282.605 274.501 L 282.605 270.01 L 284.46 270.01 C 285.662 270.01 286.54 270.188 287.075 270.485 C 287.63 270.802 287.894 271.397 287.894 272.288 C 287.894 273.246 287.478 273.867 286.62 274.223 Z  M 292.933 266.814 C 290.721 264.628 288.073 263.545 284.942 263.545 C 281.878 263.545 279.217 264.628 277.044 266.814 C 274.838 269 273.762 271.654 273.762 274.765 C 273.762 277.875 274.825 280.537 277.004 282.716 C 279.184 284.928 281.852 286.024 284.942 286.024 C 288.073 286.024 290.721 284.928 292.933 282.716 C 295.106 280.523 296.228 277.855 296.228 274.765 C 296.228 271.641 295.106 269 292.933 266.814 Z  M 291.797 267.93 C 293.692 269.779 294.61 272.084 294.61 274.765 C 294.61 277.426 293.692 279.744 291.797 281.639 C 289.922 283.521 287.637 284.486 284.942 284.486 C 282.274 284.486 279.989 283.521 278.101 281.639 C 276.252 279.744 275.301 277.426 275.301 274.765 C 275.301 272.084 276.252 269.779 278.101 267.93 C 280.022 266.001 282.294 265.057 284.942 265.057 C 287.63 265.057 289.908 266.001 291.797 267.93 Z " fill="rgb(230,51,60)"/><path d=" M 286.666 185.849 C 287.465 169.96 284.526 152.83 270.698 137.337 C 256.486 122.016 232.501 109.02 183.17 105.982 C 185.732 97.991 187.978 90.661 190.335 83.179 C 219.835 84.215 246.079 86.342 268.426 89.241 C 270.196 81.237 271.147 73.418 272.976 65.87 C 270.698 62.548 268.287 59.325 265.758 56.202 C 255.132 54.973 244.54 52.319 233.142 50.866 C 217.728 48.878 201.582 47.452 184.154 46.653 C 173.172 79.355 159.449 120.497 145.369 163.02 C 218.758 169.372 246.977 189.144 245.392 217.046 C 243.932 232.109 230.15 245.812 212.036 247.43 C 190.494 248.883 180.621 240.179 174.149 230.623 C 168.45 222.045 162.757 213.46 156.682 204.096 C 155.031 201.342 152.852 203.125 150.89 205.047 C 146.446 209.366 142.219 213.44 137.828 217.64 C 135.001 220.103 135.629 222.217 136.626 224.271 C 140.727 233.945 144.55 242.814 148.407 251.617 C 154.839 255.553 185.032 260.929 207.618 259.238 C 222.925 257.95 242.063 252.033 257.88 240.12 C 273.511 228.015 284.896 211.677 286.666 185.849 Z " fill="rgb(254,254,254)"/><path d=" M 30.001 238.3 C 32.827 242.13 35.826 245.822 39.002 249.361 C 64.387 253.925 96.04 257.081 129.013 258.045 C 128.901 254.625 128.802 251.303 128.722 247.776 C 108.475 246.634 99.17 243.55 97.552 239.541 C 96.198 236.358 95.967 231.603 95.676 226.908 C 94.158 195.81 93.656 162.177 94.184 128.418 C 105.523 128.22 116.782 128.127 128.61 127.989 C 134.342 125.38 139.738 122.791 145.463 120.236 C 145.463 116.148 145.49 112.489 145.49 108.501 C 127.943 108.58 111.314 108.857 94.64 109.339 C 95.109 95.148 95.67 82.045 96.502 69.267 C 97.103 60.867 102.914 54.732 108.911 54.25 C 118.526 53.873 127.157 57.69 135.511 61.408 C 140.121 63.64 144.664 65.859 149.379 68.276 C 151.631 68.891 154.312 69.406 155.924 67.444 C 158.724 64.129 161.385 61.052 164.132 57.829 C 165.625 55.63 164.978 54.369 164.37 53.556 C 158.374 48.821 152.727 44.562 147.022 40.283 C 143.495 37.885 137.928 37.377 132.447 37.377 C 130.254 37.377 128.062 37.456 126.021 37.522 C 120.388 37.819 113.203 38.717 101.455 41.577 C 74.987 48.702 43.215 67.16 39.861 97.333 C 39.431 102.26 39.068 107.14 38.744 112.172 C 31.275 112.806 24.473 113.348 18.048 113.962 C 17.579 119.734 17.262 125.274 16.998 131.125 C 23.503 130.742 30.285 130.406 37.84 130.075 C 36.724 161.708 37.78 193.288 40.752 222.517 C 41.254 226.961 41.736 231.366 41.155 234.212 C 40.686 236.933 36.314 238.346 30.001 238.3 Z " fill="rgb(254,254,254)"/><path d=" M 272.981 65.87 C 271.151 73.418 270.194 81.237 268.431 89.241 C 246.083 86.342 219.833 84.215 190.333 83.179 C 187.976 90.661 185.73 97.991 183.168 105.982 C 232.499 109.02 256.484 122.016 270.696 137.337 C 284.524 152.83 287.463 169.96 286.664 185.849 C 284.901 211.677 273.509 228.015 257.878 240.12 C 242.061 252.033 222.923 257.95 207.622 259.238 C 185.037 260.929 154.837 255.553 148.412 251.617 C 144.548 242.814 140.731 233.945 136.63 224.271 C 135.633 222.217 134.999 220.097 137.826 217.64 C 142.217 213.44 146.444 209.366 150.888 205.047 C 152.856 203.125 155.035 201.342 156.686 204.096 C 162.762 213.46 168.448 222.045 174.147 230.623 C 180.625 240.179 190.492 248.883 212.034 247.43 C 230.155 245.812 243.937 232.109 245.39 217.046 C 246.975 189.144 218.756 169.372 145.367 163.02 C 159.447 120.497 173.176 79.355 184.152 46.653 C 201.58 47.452 217.726 48.878 233.14 50.866 C 244.538 52.319 255.13 54.973 265.756 56.202 C 238.442 22.535 196.752 1 150.017 1 C 67.712 1 1 67.706 1 149.997 C 1 183.056 11.784 213.585 30.004 238.297 C 36.311 238.343 40.683 236.93 41.158 234.209 C 41.733 231.37 41.251 226.965 40.749 222.52 C 37.784 193.285 36.72 161.712 37.843 130.073 C 30.288 130.403 23.506 130.746 17.001 131.123 C 17.265 125.272 17.576 119.731 18.045 113.959 C 24.47 113.345 31.272 112.804 38.748 112.176 C 39.071 107.138 39.428 102.257 39.864 97.331 C 43.219 67.164 74.99 48.7 101.458 41.581 C 113.2 38.721 120.385 37.817 126.025 37.519 C 128.059 37.453 130.258 37.374 132.444 37.374 C 137.931 37.374 143.498 37.889 147.025 40.28 C 152.731 44.559 158.377 48.819 164.373 53.554 C 164.981 54.366 165.621 55.627 164.136 57.833 C 161.382 61.056 158.72 64.133 155.92 67.448 C 154.309 69.403 151.634 68.888 149.383 68.28 C 144.661 65.863 140.117 63.644 135.514 61.406 C 127.154 57.694 118.523 53.877 108.907 54.247 C 102.911 54.729 97.106 60.871 96.505 69.264 C 95.667 82.043 95.112 95.145 94.643 109.337 C 111.318 108.861 127.946 108.584 145.486 108.498 C 145.486 112.493 145.46 116.152 145.46 120.233 C 139.741 122.795 134.346 125.377 128.613 127.993 C 116.779 128.125 105.52 128.217 94.181 128.415 C 93.659 162.174 94.154 195.814 95.673 226.912 C 95.964 231.607 96.202 236.356 97.555 239.545 C 99.173 243.547 108.478 246.631 128.726 247.774 C 128.798 251.3 128.897 254.622 129.01 258.049 C 96.043 257.079 64.384 253.929 38.999 249.359 C 66.286 279.816 105.903 299 150.017 299 C 232.314 299 299 232.288 299 149.997 C 299 118.78 289.385 89.809 272.981 65.87 Z " fill="rgb(230,51,60)"/><line x1="39.001" y1="249.36" x2="39.001" y2="249.36"/></g></svg>